<svg width="26" height="26" viewBox="0 0 26 26" fill="none" xmlns="http://www.w3.org/2000/svg">
<path d="M22.9608 7.16341V6.80773C22.9608 5.17273 21.6306 3.84251 19.9956 3.84251H2.96522C1.33016 3.84256 0 5.17273 0 6.80773V7.16341H22.9608Z" fill="#B1B1B1"/>
<path d="M13.5651 16.7017C13.5651 15.1636 14.0598 13.7017 14.9731 12.4968H0V16.6331C0 18.2681 1.33016 19.5983 2.96522 19.5983H14.1911C13.7813 18.7007 13.5651 17.7179 13.5651 16.7017ZM11.4804 15.803H8.92125V14.2796H11.4804V15.803ZM3.41545 14.2796H7.39781V15.803H3.41545V14.2796Z" fill="#B1B1B1"/>
<path d="M16.5547 10.9734C17.7165 10.1606 19.0967 9.72264 20.5443 9.72264C21.3822 9.72264 22.1973 9.86975 22.9608 10.1509V8.6869H0V10.9734H16.5547Z" fill="#B1B1B1"/>
<path d="M26.0001 16.7017C26.0001 13.6886 23.5575 11.2461 20.5444 11.2461C17.5313 11.2461 15.0886 13.6886 15.0886 16.7017C15.0886 19.7148 17.5312 22.1574 20.5444 22.1574C23.5575 22.1574 26.0001 19.7148 26.0001 16.7017ZM21.2798 19.6163V20.2363H20.518V20.2364V20.2363H19.7563V19.6209C19.2958 19.465 18.919 19.1906 18.551 18.9215L19.4504 17.6918C19.9447 18.0534 20.1977 18.2272 20.5444 18.2272C20.7404 18.2272 20.8991 18.1339 20.9586 17.9837C21.0306 17.8019 20.9288 17.6344 20.6862 17.5357C20.6862 17.5357 19.5974 17.1725 19.094 16.6593C18.6716 16.2288 18.5373 15.6219 18.6717 15.0447C18.8071 14.4635 19.1996 14.0091 19.7563 13.7821V13.1671H21.2798V13.7566C21.6667 13.8641 21.9942 14.0229 22.1825 14.1251L21.4556 15.4639C20.9737 15.2024 20.5304 15.1239 20.3578 15.1829C20.1904 15.2401 20.165 15.3492 20.1554 15.3904C20.1418 15.4486 20.1346 15.538 20.2277 15.6418C20.3173 15.7417 21.2606 16.1247 21.2606 16.1247C22.2783 16.539 22.7573 17.5795 22.3748 18.5449C22.1761 19.0467 21.7762 19.4267 21.2798 19.6163Z" fill="#B1B1B1"/>
</svg>
